<svg width="31" height="31" viewBox="0 0 31 31" fill="none" xmlns="http://www.w3.org/2000/svg">
<g clip-path="url(#clip0_162_4297)">
<path d="M15.5703 0C15.562 0.00830583 15.5454 0.00830583 15.5205 0.00830583C7.11499 0.00830583 0.279297 6.844 0.279297 15.2495C0.279297 18.6798 1.45042 22.0104 3.59332 24.6932L1.37567 29.8428C1.19294 30.2664 1.39228 30.7565 1.80757 30.9309C1.95707 30.9973 2.12319 31.014 2.281 30.989L10.4124 29.5604C12.0403 30.1501 13.7513 30.4492 15.479 30.4409C23.8845 30.4409 30.7201 23.6052 30.7201 15.1997C30.7368 6.81908 23.9509 0.00830583 15.5703 0ZM15.4873 28.788C13.8842 28.788 12.2978 28.4973 10.7945 27.9325C10.6533 27.8744 10.5038 27.866 10.3543 27.891L3.51026 29.087L5.32093 24.8759C5.44552 24.5852 5.39569 24.2447 5.18804 24.0038C4.20795 22.8659 3.42721 21.5702 2.87902 20.1665C2.26439 18.5967 1.94877 16.9273 1.94877 15.2412C1.94877 7.74934 8.04524 1.66117 15.5288 1.66117C22.9957 1.64455 29.059 7.68289 29.0673 15.1498C29.0673 15.1664 29.0673 15.1831 29.0673 15.1997C29.0673 22.6998 22.9708 28.788 15.4873 28.788Z" fill="#FF9270"/>
<path d="M14.8401 12.1846H10.355C9.89818 12.1846 9.52441 12.5584 9.52441 13.0152C9.52441 13.472 9.89818 13.8458 10.355 13.8458H14.8401C15.297 13.8458 15.6707 13.472 15.6707 13.0152C15.6707 12.5584 15.297 12.1846 14.8401 12.1846Z" fill="#FF9270"/>
<path d="M20.6542 16.3376H10.355C9.89818 16.3376 9.52441 16.7113 9.52441 17.1681C9.52441 17.625 9.89818 17.9987 10.355 17.9987H20.6542C21.111 17.9987 21.4848 17.625 21.4848 17.1681C21.4848 16.7113 21.111 16.3376 20.6542 16.3376Z" fill="#FF9270"/>
</g>
<defs>
<clipPath id="clip0_162_4297">
<rect width="31" height="31" fill="white"/>
</clipPath>
</defs>
</svg>
