<svg width="49" height="50" viewBox="0 0 49 50" fill="none" xmlns="http://www.w3.org/2000/svg">
<g clip-path="url(#clip0_506_117)">
<path d="M24.5 0C10.969 0 0 11.1929 0 25C0 38.8071 10.969 50 24.5 50C38.031 50 49 38.8071 49 25C49 11.1929 38.031 0 24.5 0ZM24.5 47.7272C12.1991 47.7272 2.2273 37.552 2.2273 25C2.2273 12.448 12.1991 2.27275 24.5 2.27275C36.8009 2.27275 46.7727 12.448 46.7727 25C46.7727 37.552 36.8009 47.7272 24.5 47.7272Z" fill="white" fill-opacity="0.55"/>
<g clip-path="url(#clip1_506_117)">
<path d="M29.0312 13.3335H19.1512C15.7961 13.3335 13.0664 16.119 13.0664 19.5426V29.6242C13.0664 33.048 15.7961 35.8334 19.1512 35.8334H29.0312C32.3866 35.8334 35.1163 33.0479 35.1163 29.6242V19.5426C35.1164 16.119 32.3866 13.3335 29.0312 13.3335ZM33.16 29.6242C33.16 31.9472 31.3079 33.8371 29.0313 33.8371H19.1512C16.8748 33.8372 15.0228 31.9472 15.0228 29.6242V19.5426C15.0228 17.2198 16.8748 15.3298 19.1512 15.3298H29.0312C31.3077 15.3298 33.1599 17.2198 33.1599 19.5426V29.6242H33.16Z" fill="white" fill-opacity="0.55"/>
<path d="M24.0909 18.7861C20.9579 18.7861 18.4092 21.3869 18.4092 24.5838C18.4092 27.7805 20.9579 30.3812 24.0909 30.3812C27.2238 30.3812 29.7726 27.7805 29.7726 24.5838C29.7726 21.3869 27.2238 18.7861 24.0909 18.7861ZM24.0909 28.3847C22.0368 28.3847 20.3656 26.6796 20.3656 24.5836C20.3656 22.4875 22.0367 20.7823 24.0909 20.7823C26.1451 20.7823 27.8162 22.4875 27.8162 24.5836C27.8162 26.6796 26.1449 28.3847 24.0909 28.3847Z" fill="white" fill-opacity="0.55"/>
<path d="M30.0108 17.0933C29.6339 17.0933 29.2636 17.249 28.9974 17.5218C28.7299 17.7933 28.5762 18.1713 28.5762 18.5572C28.5762 18.942 28.7301 19.3198 28.9974 19.5926C29.2635 19.8641 29.6339 20.0212 30.0108 20.0212C30.3891 20.0212 30.7582 19.8641 31.0255 19.5926C31.2929 19.3198 31.4455 18.9418 31.4455 18.5572C31.4455 18.1713 31.2929 17.7933 31.0255 17.5218C30.7595 17.249 30.3891 17.0933 30.0108 17.0933Z" fill="white" fill-opacity="0.55"/>
</g>
</g>
<defs>
<clipPath id="clip0_506_117">
<rect width="49" height="50" fill="white"/>
</clipPath>
<clipPath id="clip1_506_117">
<rect width="22.05" height="22.5" fill="white" transform="translate(13.0664 13.3335)"/>
</clipPath>
</defs>
</svg>
