<svg width="49" height="50" viewBox="0 0 49 50" fill="none" xmlns="http://www.w3.org/2000/svg">
<g clip-path="url(#clip0_506_109)">
<path d="M17.8181 20.4547C19.0482 20.4547 20.0454 19.4371 20.0454 18.1819C20.0454 16.9267 19.0482 15.9092 17.8181 15.9092C16.588 15.9092 15.5908 16.9267 15.5908 18.1819C15.5908 19.4371 16.588 20.4547 17.8181 20.4547Z" fill="white" fill-opacity="0.55"/>
<path d="M20.0453 21.5908H15.5908V34.0908H20.0453V21.5908Z" fill="white" fill-opacity="0.55"/>
<path d="M24.5 0C10.969 0 0 11.1929 0 25C0 38.8071 10.969 50 24.5 50C38.031 50 49 38.8071 49 25C49 11.1929 38.031 0 24.5 0ZM24.5 47.7272C12.1991 47.7272 2.2273 37.552 2.2273 25C2.2273 12.448 12.1991 2.27275 24.5 2.27275C36.8009 2.27275 46.7727 12.448 46.7727 25C46.7727 37.552 36.8009 47.7272 24.5 47.7272Z" fill="white" fill-opacity="0.55"/>
<path d="M30.4688 21.5908C27.1279 21.5908 26.727 23.6136 26.727 23.6136V21.5908H22.2725V34.0908H26.727V27.2727C26.727 27.2727 26.727 24.9999 28.6202 24.9999C29.7338 24.9999 30.0679 26.0112 30.0679 27.2727V34.0908H34.5224V27.2727C34.5224 23.7158 33.0079 21.5908 30.4688 21.5908Z" fill="white" fill-opacity="0.55"/>
</g>
<defs>
<clipPath id="clip0_506_109">
<rect width="49" height="50" fill="white"/>
</clipPath>
</defs>
</svg>
