<svg width="202" height="52" viewBox="0 0 202 52" fill="none" xmlns="http://www.w3.org/2000/svg">
<g clip-path="url(#clip0_2585_3)">
<path d="M4.54891 36.4071V15.6635V10.4423L0 12.9824V25.9647V38.9471L4.54891 41.6282L9.09782 44.2388V39.0176L4.54891 36.4071ZM14.784 9.80733V4.5156L11.3723 6.49118L10.235 7.12619V12.3474V39.5115L9.16889 38.9471V44.1683L11.3723 45.4383L13.7889 46.8494L20.4701 50.6594L22.7445 52L25.019 50.6594L34.0457 45.4383L45.418 38.9471V26.0353V12.9824L34.0457 6.49118L24.9479 1.34057L22.6735 0L20.399 1.34057V3.95115L22.6735 5.29172L23.5264 5.78562L25.5165 6.91452L26.867 7.69064L31.7002 10.5129L40.727 15.7341V26.1058V36.4776L31.7002 41.6988L24.9479 45.5794V40.2171V11.8535L23.171 10.8657L22.6024 10.5834L20.3279 11.924V40.2171V45.4383L13.7178 41.6282L14.784 42.1927V9.80733Z" fill="#F28F72"/>
<path d="M80.1745 7.12616L72.9247 23.213L69.0866 14.8168L64.5376 23.0013L57.43 7.0556H60.8417L64.822 16.0163L67.5229 11.289L65.6038 7.12616H69.0155L72.8536 15.734L76.6918 7.12616H80.1745Z" fill="white"/>
<path d="M93.3237 10.2306H86.2871V12.9118H92.684V16.0163H86.2871V19.4735H93.3237V22.578H83.1597V7.12616H93.2526V10.2306H93.3237Z" fill="white"/>
<path d="M103.63 10.2306V22.578H100.502V10.2306H96.3089V7.12616H107.823V10.2306H103.63Z" fill="white"/>
<path d="M114.291 7.12616V12.8412H121.044V7.12616H124.171V22.578H121.044V16.0163H114.291V22.578H111.164V7.12616H114.291Z" fill="white"/>
<path d="M131.421 7.12616V22.578H128.293V7.12616H131.421Z" fill="white"/>
<path d="M147.982 8.1845C149.19 9.03118 150.043 10.1601 150.683 11.6418C151.109 12.7001 151.322 13.7585 151.322 14.8874C151.322 16.0163 151.109 17.0746 150.683 18.1329C150.114 19.5441 149.19 20.7435 147.982 21.5902C146.631 22.5074 145.068 23.0013 143.22 23.0013C141.372 23.0013 139.808 22.5074 138.457 21.5902C137.249 20.7435 136.396 19.6146 135.757 18.1329C135.33 17.0746 135.117 16.0163 135.117 14.8874C135.117 13.7585 135.33 12.7001 135.757 11.6418C136.325 10.2306 137.249 9.03118 138.457 8.1845C139.808 7.26727 141.372 6.77338 143.22 6.77338C145.068 6.77338 146.631 7.26727 147.982 8.1845ZM146.134 10.7245C145.352 10.1601 144.357 9.87785 143.22 9.87785C142.082 9.87785 141.158 10.1601 140.305 10.7245C139.595 11.2184 139.026 11.924 138.671 12.7707C138.386 13.4057 138.244 14.1112 138.244 14.8874C138.244 15.6635 138.386 16.2985 138.671 17.004C139.026 17.8507 139.524 18.5563 140.305 19.0502C141.087 19.6146 142.082 19.8969 143.22 19.8969C144.357 19.8969 145.352 19.6146 146.134 19.0502C146.844 18.5563 147.413 17.8507 147.768 17.004C148.053 16.369 148.124 15.6635 148.124 14.8874C148.124 14.1112 147.982 13.4762 147.768 12.7707C147.413 11.924 146.916 11.2184 146.134 10.7245Z" fill="white"/>
<path d="M61.6235 42.7571V46.4966H58.4961V31.1153H64.3955C65.8881 31.1153 67.1675 31.3975 68.1626 32.0325C69.0866 32.597 69.7973 33.3731 70.2949 34.3609C70.6502 35.0665 70.7924 35.8426 70.7924 36.6892V36.7598C70.7924 37.6065 70.5792 38.3826 70.2238 39.1587C69.5841 40.5698 68.5179 41.6282 67.0964 42.2632C66.4567 42.5454 65.6038 42.6865 64.5377 42.7571H61.6235ZM61.6235 34.1492V39.7232H64.3955C65.8881 39.7232 66.8832 39.1587 67.4518 37.9593C67.5939 37.6065 67.7361 37.1831 67.7361 36.8304V36.6892C67.7361 36.3365 67.665 35.9837 67.5229 35.6309C67.0253 34.6431 66.0303 34.1492 64.4666 34.1492H61.6235Z" fill="white"/>
<path d="M74.2752 46.4966V31.1153H80.1745C81.6671 31.1153 82.9465 31.3975 83.9416 32.0325C84.8656 32.597 85.5763 33.3731 86.0739 34.3609C86.4293 35.137 86.5714 35.9131 86.5714 36.7598C86.5714 37.6065 86.3582 38.3826 86.0028 39.1587C85.3631 40.5698 84.2259 41.6282 82.5201 42.1926C82.8754 42.4043 83.2308 42.6865 83.6573 43.0393L86.6425 46.426H82.5201L79.2505 42.6865H77.4025V46.426H74.2752V46.4966ZM77.4025 34.1492V39.7232H80.1745C81.6671 39.7232 82.6622 39.1587 83.2308 37.9593C83.373 37.6065 83.5151 37.1831 83.5151 36.8304C83.5151 36.407 83.444 36.0542 83.3019 35.772C82.8044 34.7842 81.8093 34.2903 80.1745 34.2903H77.4025V34.1492Z" fill="white"/>
<path d="M102.422 32.1736C103.63 33.0203 104.483 34.1492 105.122 35.6309C105.549 36.6892 105.762 37.7476 105.762 38.8765C105.762 40.0054 105.549 41.0637 105.122 42.1221C104.554 43.5332 103.63 44.7327 102.422 45.5793C101.071 46.4966 99.5074 46.9905 97.6594 46.9905C95.8114 46.9905 94.2477 46.4966 92.8973 45.5793C91.6889 44.7327 90.836 43.6038 90.1963 42.1221C89.7699 41.0637 89.5566 40.0054 89.5566 38.8765C89.5566 37.7476 89.7699 36.6892 90.1963 35.6309C90.765 34.2198 91.6889 33.0203 92.8973 32.1736C94.2477 31.2564 95.8114 30.7625 97.6594 30.7625C99.5074 30.7625 101.071 31.1859 102.422 32.1736ZM100.574 34.6431C99.7917 34.0787 98.7966 33.7964 97.6594 33.7964C96.5222 33.7964 95.5271 34.0787 94.7452 34.6431C94.0345 35.137 93.4659 35.8426 93.1105 36.6892C92.8262 37.3242 92.684 38.0298 92.684 38.8059C92.684 39.5821 92.8262 40.2171 93.1105 40.9226C93.4659 41.7693 93.9634 42.4749 94.7452 42.9688C95.5271 43.5332 96.5222 43.8154 97.6594 43.8154C98.7966 43.8154 99.7917 43.5332 100.574 42.9688C101.284 42.4749 101.853 41.7693 102.208 40.9226C102.493 40.2876 102.564 39.5821 102.564 38.8059C102.564 38.0298 102.422 37.3948 102.208 36.6892C101.853 35.8426 101.284 35.137 100.574 34.6431Z" fill="white"/>
<path d="M112.443 42.7571V46.4966H109.316V31.1153H115.215C116.708 31.1153 117.987 31.3975 118.982 32.0325C119.906 32.597 120.617 33.3731 121.115 34.3609C121.47 35.0665 121.612 35.8426 121.612 36.6892V36.7598C121.612 37.6065 121.399 38.3826 121.044 39.1587C120.404 40.5698 119.338 41.6282 117.916 42.2632C117.277 42.5454 116.424 42.6865 115.357 42.7571H112.443ZM112.443 34.1492V39.7232H115.215C116.708 39.7232 117.703 39.1587 118.272 37.9593C118.414 37.6065 118.556 37.1831 118.556 36.8304V36.6892C118.556 36.3365 118.485 35.9837 118.343 35.6309C117.845 34.6431 116.85 34.1492 115.286 34.1492H112.443Z" fill="white"/>
<path d="M135.259 34.1492H128.222V36.8304H134.619V39.9348H128.222V43.3921H135.259V46.4966H125.095V31.1153H135.188V34.1492H135.259Z" fill="white"/>
<path d="M139.026 46.4966V31.1153H144.925C146.418 31.1153 147.697 31.3975 148.692 32.0325C149.616 32.597 150.327 33.3731 150.825 34.3609C151.18 35.137 151.322 35.9131 151.322 36.7598C151.322 37.6065 151.109 38.3826 150.754 39.1587C150.114 40.5698 148.977 41.6282 147.271 42.1926C147.626 42.4043 147.982 42.6865 148.408 43.0393L151.393 46.426H147.271L144.001 42.6865H142.153V46.426H139.026V46.4966ZM142.082 34.1492V39.7232H144.854C146.347 39.7232 147.342 39.1587 147.911 37.9593C148.053 37.6065 148.195 37.1831 148.195 36.8304C148.195 36.407 148.124 36.0542 147.982 35.772C147.484 34.7842 146.489 34.2903 144.854 34.2903H142.082V34.1492Z" fill="white"/>
<path d="M161.344 34.1492V46.4966H158.217V34.1492H154.023V31.0447H165.538V34.1492H161.344Z" fill="white"/>
<path d="M172.148 31.1153V46.5671H169.02V31.1153H172.148Z" fill="white"/>
<path d="M186.434 34.1492H179.398V36.8304H185.795V39.9348H179.398V43.3921H186.434V46.4966H176.341V31.1153H186.434V34.1492Z" fill="white"/>
<path d="M193.329 42.1221C193.329 42.8276 193.826 43.3215 194.75 43.6038C195.177 43.7449 195.603 43.8154 196.101 43.8154C196.598 43.8154 197.025 43.7449 197.451 43.6038C198.446 43.3215 198.873 42.8276 198.873 42.1221C198.873 41.6282 198.517 41.2754 197.878 40.9226C197.451 40.711 196.74 40.4993 195.745 40.2876C193.897 39.8643 192.618 39.3704 191.978 38.947C190.841 38.1709 190.272 37.042 190.272 35.4898C190.272 34.3609 190.628 33.4437 191.338 32.6675C191.978 31.962 192.831 31.4681 193.968 31.1153C194.679 30.9036 195.39 30.7625 196.172 30.7625C196.954 30.7625 197.664 30.9036 198.375 31.1153C199.441 31.4681 200.365 31.962 201.005 32.6675C201.716 33.4437 202.071 34.4314 202.071 35.4898H198.944C198.944 34.7842 198.446 34.2903 197.522 34.0081C197.096 33.867 196.669 33.7964 196.172 33.7964C195.745 33.7964 195.248 33.867 194.821 34.0081C193.826 34.2903 193.4 34.7842 193.4 35.4898C193.4 35.9837 193.755 36.3365 194.395 36.6892C194.821 36.9009 195.532 37.1126 196.527 37.3243C198.375 37.7476 199.654 38.2415 200.294 38.6648C201.431 39.4409 202 40.5698 202 42.1221C202 43.251 201.645 44.1682 200.934 44.9443C200.294 45.6499 199.441 46.2143 198.304 46.4966C197.593 46.7082 196.882 46.8494 196.101 46.8494C195.319 46.8494 194.608 46.7788 193.897 46.5671C192.831 46.2143 191.907 45.7205 191.267 45.0149C190.557 44.2388 190.201 43.251 190.201 42.1926H193.329V42.1221Z" fill="white"/>
</g>
<defs>
<clipPath id="clip0_2585_3">
<rect width="202" height="52" fill="white"/>
</clipPath>
</defs>
</svg>
