<svg width="50" height="50" viewBox="0 0 50 50" fill="none" xmlns="http://www.w3.org/2000/svg">
<path d="M25 0C11.1929 0 0 11.1929 0 25C0 38.8071 11.1929 50 25 50C38.8071 50 50 38.8071 50 25C50 11.1929 38.8071 0 25 0ZM25 47.7272C12.448 47.7272 2.27275 37.552 2.27275 25C2.27275 12.448 12.448 2.27275 25 2.27275C37.552 2.27275 47.7272 12.448 47.7272 25C47.7272 37.552 37.552 47.7272 25 47.7272Z" fill="#9D9CA1"/>
<g clip-path="url(#clip0_1627_21)">
<path d="M37 17.5585C36.1075 17.95 35.1565 18.2095 34.165 18.3355C35.185 17.7265 35.9635 16.7695 36.3295 15.616C35.3785 16.183 34.3285 16.5835 33.2095 16.807C32.3065 15.8455 31.0195 15.25 29.6155 15.25C26.8915 15.25 24.6985 17.461 24.6985 20.1715C24.6985 20.5615 24.7315 20.9365 24.8125 21.2935C20.722 21.094 17.1025 19.1335 14.671 16.147C14.2465 16.8835 13.9975 17.7265 13.9975 18.634C13.9975 20.338 14.875 21.8485 16.183 22.723C15.3925 22.708 14.617 22.4785 13.96 22.117C13.96 22.132 13.96 22.1515 13.96 22.171C13.96 24.562 15.6655 26.548 17.902 27.0055C17.5015 27.115 17.065 27.1675 16.612 27.1675C16.297 27.1675 15.979 27.1495 15.6805 27.0835C16.318 29.032 18.127 30.4645 20.278 30.511C18.604 31.8205 16.4785 32.6095 14.1775 32.6095C13.774 32.6095 13.387 32.5915 13 32.542C15.1795 33.9475 17.7625 34.75 20.548 34.75C29.602 34.75 34.552 27.25 34.552 20.749C34.552 20.5315 34.5445 20.3215 34.534 20.113C35.5105 19.42 36.331 18.5545 37 17.5585Z" fill="#9D9CA1"/>
</g>
<defs>
<clipPath id="clip0_1627_21">
<rect width="24" height="24" fill="white" transform="translate(13 13)"/>
</clipPath>
</defs>
</svg>
